HIERARCHY
ROOT Hips
{
  OFFSET 0 0.240689 0
  CHANNELS 6 Xposition Yposition Zposition Zrotation Xrotation Yrotation
  JOINT Bip01_Spine0
  {
    OFFSET 0 -24.7459 49.7988
    CHANNELS 6 Xposition Yposition Zposition Zrotation Xrotation Yrotation
    JOINT Bip01_Pelvis
    {
      OFFSET 0 0 0
      CHANNELS 6 Xposition Yposition Zposition Zrotation Xrotation Yrotation
      JOINT Bip01_Spine0_Tail
      {
        OFFSET -6.47486 -3.86022 0
        CHANNELS 6 Xposition Yposition Zposition Zrotation Xrotation Yrotation
        JOINT Bip01_Spine0_Tail1
        {
          OFFSET 10.3837 -0.00825882 0
          CHANNELS 6 Xposition Yposition Zposition Zrotation Xrotation Yrotation
          JOINT Bip01_Spine0_Tail2
          {
            OFFSET 10.3837 -0.00826263 0
            CHANNELS 6 Xposition Yposition Zposition Zrotation Xrotation Yrotation
            JOINT Bip01_Spine0_Tail3
            {
              OFFSET 10.3837 -0.00825882 0
              CHANNELS 6 Xposition Yposition Zposition Zrotation Xrotation Yrotation
              JOINT Bip01_Spine0_Tail4
              {
                OFFSET 10.3837 -0.00826263 0
                CHANNELS 6 Xposition Yposition Zposition Zrotation Xrotation Yrotation
                End Site
                {
                  OFFSET 0 0 0
                }
              }
            }
          }
        }
      }
      JOINT Bip01_R_Thigh
      {
        OFFSET 0 -1.52588e-005 -8.75617
        CHANNELS 6 Xposition Yposition Zposition Zrotation Xrotation Yrotation
        JOINT Bip01_R_Calf
        {
          OFFSET 19.7638 0 0
          CHANNELS 6 Xposition Yposition Zposition Zrotation Xrotation Yrotation
          JOINT Bip01_R_Foot
          {
            OFFSET 18.6534 0 0
            CHANNELS 6 Xposition Yposition Zposition Zrotation Xrotation Yrotation
            JOINT Bip01_R_Toe0
            {
              OFFSET 5.09145 13.9567 0
              CHANNELS 6 Xposition Yposition Zposition Zrotation Xrotation Yrotation
              JOINT Bip01_R_Toe01
              {
                OFFSET 4.28803 0 0
                CHANNELS 6 Xposition Yposition Zposition Zrotation Xrotation Yrotation
                JOINT Bip01_R_Toe02
                {
                  OFFSET 3.85801 0 0
                  CHANNELS 6 Xposition Yposition Zposition Zrotation Xrotation Yrotation
                  End Site
                  {
                    OFFSET 0 0 0
                  }
                }
              }
            }
          }
        }
      }
      JOINT Bip01_L_Thigh
      {
        OFFSET 0 1.52588e-005 8.75617
        CHANNELS 6 Xposition Yposition Zposition Zrotation Xrotation Yrotation
        JOINT Bip01_L_Calf
        {
          OFFSET 19.7638 0 0
          CHANNELS 6 Xposition Yposition Zposition Zrotation Xrotation Yrotation
          JOINT Bip01_L_Foot
          {
            OFFSET 18.6534 0 0
            CHANNELS 6 Xposition Yposition Zposition Zrotation Xrotation Yrotation
            JOINT Bip01_L_Toe0
            {
              OFFSET 5.09144 13.9567 0
              CHANNELS 6 Xposition Yposition Zposition Zrotation Xrotation Yrotation
              JOINT Bip01_L_Toe01
              {
                OFFSET 4.28802 0 0
                CHANNELS 6 Xposition Yposition Zposition Zrotation Xrotation Yrotation
                JOINT Bip01_L_Toe02
                {
                  OFFSET 3.85801 0 0
                  CHANNELS 6 Xposition Yposition Zposition Zrotation Xrotation Yrotation
                  End Site
                  {
                    OFFSET 0 0 0
                  }
                }
              }
            }
          }
        }
      }
      JOINT Bip01_Spine
      {
        OFFSET 9.14835 -0.00640869 -1.1e-005
        CHANNELS 6 Xposition Yposition Zposition Zrotation Xrotation Yrotation
        JOINT Bip01_Spine1
        {
          OFFSET 8.04366 -0.00638199 0
          CHANNELS 6 Xposition Yposition Zposition Zrotation Xrotation Yrotation
          JOINT Bip01_Spine2
          {
            OFFSET 8.04367 -0.00639343 0
            CHANNELS 6 Xposition Yposition Zposition Zrotation Xrotation Yrotation
            JOINT Bip01_Spine3
            {
              OFFSET 8.04304 -0.00831222 0
              CHANNELS 6 Xposition Yposition Zposition Zrotation Xrotation Yrotation
              JOINT Bip01_Neck
              {
                OFFSET 10.6685 1.06813 0
                CHANNELS 6 Xposition Yposition Zposition Zrotation Xrotation Yrotation
                JOINT Bip01_R_Clavicle
                {
                  OFFSET -3.21661 -4.89635 -9.04802
                  CHANNELS 6 Xposition Yposition Zposition Zrotation Xrotation Yrotation
                  JOINT Bip01_R_UpperArm
                  {
                    OFFSET 19.0492 0 0
                    CHANNELS 6 Xposition Yposition Zposition Zrotation Xrotation Yrotation
                    JOINT Bip01_R_Forearm
                    {
                      OFFSET 10.3706 0 0
                      CHANNELS 6 Xposition Yposition Zposition Zrotation Xrotation Yrotation
                      JOINT Bip01_R_Hand
                      {
                        OFFSET 22.8632 0 0
                        CHANNELS 6 Xposition Yposition Zposition Zrotation Xrotation Yrotation
                        JOINT Bip01_R_Finger0
                        {
                          OFFSET 6.48259 0.103651 0.504496
                          CHANNELS 6 Xposition Yposition Zposition Zrotation Xrotation Yrotation
                          JOINT Bip01_R_Finger01
                          {
                            OFFSET 3.66847 0 0
                            CHANNELS 6 Xposition Yposition Zposition Zrotation Xrotation Yrotation
                            End Site
                            {
                              OFFSET 0 0 0
                            }
                          }
                        }
                      }
                    }
                  }
                }
                JOINT Bip01_L_Clavicle
                {
                  OFFSET -3.21661 -4.89641 9.04797
                  CHANNELS 6 Xposition Yposition Zposition Zrotation Xrotation Yrotation
                  JOINT Bip01_L_UpperArm
                  {
                    OFFSET 19.0492 0 0
                    CHANNELS 6 Xposition Yposition Zposition Zrotation Xrotation Yrotation
                    JOINT Bip01_L_Forearm
                    {
                      OFFSET 10.3706 0 0
                      CHANNELS 6 Xposition Yposition Zposition Zrotation Xrotation Yrotation
                      JOINT Bip01_L_Hand
                      {
                        OFFSET 22.8631 0 0
                        CHANNELS 6 Xposition Yposition Zposition Zrotation Xrotation Yrotation
                        JOINT Bip01_L_Finger0
                        {
                          OFFSET 6.48257 0.103655 -0.504492
                          CHANNELS 6 Xposition Yposition Zposition Zrotation Xrotation Yrotation
                          JOINT Bip01_L_Finger01
                          {
                            OFFSET 3.66844 0 0
                            CHANNELS 6 Xposition Yposition Zposition Zrotation Xrotation Yrotation
                            End Site
                            {
                              OFFSET 0 0 0
                            }
                          }
                        }
                      }
                    }
                  }
                }
                JOINT Bip01_Neck1
                {
                  OFFSET 7.52459 -0.00656509 0
                  CHANNELS 6 Xposition Yposition Zposition Zrotation Xrotation Yrotation
                  JOINT Bip01_Neck2
                  {
                    OFFSET 8.4783 -0.00588226 0
                    CHANNELS 6 Xposition Yposition Zposition Zrotation Xrotation Yrotation
                    JOINT Bip01_Head
                    {
                      OFFSET 8.41606 0 0
                      CHANNELS 6 Xposition Yposition Zposition Zrotation Xrotation Yrotation
                      JOINT EyesBlue
                      {
                        OFFSET 0 0 0
                        CHANNELS 6 Xposition Yposition Zposition Zrotation Xrotation Yrotation
                        JOINT EyesBlue_2
                        {
                          OFFSET 0 -0.500007 0
                          CHANNELS 6 Xposition Yposition Zposition Zrotation Xrotation Yrotation
                          End Site
                          {
                            OFFSET 0 0 0
                          }
                        }
                      }
                      JOINT Bip01_Head2_Eyeleds
                      {
                        OFFSET 6.52751 7.61746 2.2e-005
                        CHANNELS 6 Xposition Yposition Zposition Zrotation Xrotation Yrotation
                        End Site
                        {
                          OFFSET 0 0 0
                        }
                      }
                      JOINT Bip01_Head_Muzzle
                      {
                        OFFSET 2.88628 13.9448 3.88994
                        CHANNELS 6 Xposition Yposition Zposition Zrotation Xrotation Yrotation
                        End Site
                        {
                          OFFSET 0 0 0
                        }
                      }
                      JOINT Bip01_Head1_Jaw
                      {
                        OFFSET 0.271065 1.32405 0
                        CHANNELS 6 Xposition Yposition Zposition Zrotation Xrotation Yrotation
                        JOINT _Bip01_Head11_TungeControler
                        {
                          OFFSET 4.61616 5.82872 0
                          CHANNELS 6 Xposition Yposition Zposition Zrotation Xrotation Yrotation
                          JOINT _Bip01_Ponytail3_tunge
                          {
                            OFFSET 5.17785 2.98805 0
                            CHANNELS 6 Xposition Yposition Zposition Zrotation Xrotation Yrotation
                            JOINT Bip01_Ponytail31
                            {
                              OFFSET 5.57569 0 0
                              CHANNELS 6 Xposition Yposition Zposition Zrotation Xrotation Yrotation
                              JOINT Bip01_Ponytail32
                              {
                                OFFSET 2.93165 0 0
                                CHANNELS 6 Xposition Yposition Zposition Zrotation Xrotation Yrotation
                                JOINT Bip01_Ponytail3Nub
                                {
                                  OFFSET 3.30155 0 0
                                  CHANNELS 6 Xposition Yposition Zposition Zrotation Xrotation Yrotation
                                  End Site
                                  {
                                    OFFSET 0 0 0
                                  }
                                }
                              }
                            }
                          }
                        }
                        JOINT Bip01_Head_JawNub
                        {
                          OFFSET 15.5776 -0.000389099 0
                          CHANNELS 6 Xposition Yposition Zposition Zrotation Xrotation Yrotation
                          End Site
                          {
                            OFFSET 0 0 0
                          }
                        }
                      }
                      JOINT Bip01_Ponytail2
                      {
                        OFFSET 9.40334 1.03973 -6.51764
                        CHANNELS 6 Xposition Yposition Zposition Zrotation Xrotation Yrotation
                        JOINT Bip01_Ponytail21
                        {
                          OFFSET 2.77018 -0.00640106 1.33514e-005
                          CHANNELS 6 Xposition Yposition Zposition Zrotation Xrotation Yrotation
                          End Site
                          {
                            OFFSET 0 0 0
                          }
                        }
                      }
                      JOINT Bip01_Ponytail1
                      {
                        OFFSET 9.40368 1.03969 6.51768
                        CHANNELS 6 Xposition Yposition Zposition Zrotation Xrotation Yrotation
                        JOINT Bip01_Ponytail11
                        {
                          OFFSET 2.77018 -0.00640487 0
                          CHANNELS 6 Xposition Yposition Zposition Zrotation Xrotation Yrotation
                          End Site
                          {
                            OFFSET 0 0 0
                          }
                        }
                      }
                    }
                  }
                }
              }
            }
          }
        }
      }
    }
  }
}
MOTION
Frames:	4
Frame Time:	0.0333333
4.20943 0 -48.869 -0 -90 -0 -0.892173 -28.7005 56.4354 90.4915 -5.14916 54.0385 0 0 0 -90.0003 4.58945e-006 -89.3372 -6.47695 -3.86247 -0.0474011 154.509 -0.179288 0.377536 8.89585 -0.008029 0.000125 -7.5007 0.000533743 0.000607473 10.2239 -0.007656 3e-006 -22.0015 0.000134869 0.000396706 9.85422 -0.006027 0.000142 -1.47682 0.00180395 0.00268274 8.04663 -0.005508 2.1e-005 6.21218 0.00214977 0.00286728 1.1e-005 -1.1e-005 -8.75617 -88.9243 3.4759 -158.358 19.7638 1e-006 1.77636e-015 -95.2091 4.58044e-005 -0.00100087 18.6534 -1e-006 -1e-006 9.51386 14.1516 19.0708 5.09143 13.9567 -3.21529e-007 63.7465 -26.4804 -2.30966 4.28801 1e-006 -7.28306e-014 2.07992 0.00111542 0.00227776 3.85803 -1.3e-005 1e-006 -45 -7.00465e-006 3.88561e-006 -1.1e-005 1.1e-005 8.75617 -96.0042 -13.3382 -149.112 19.7638 2e-006 -1.06581e-014 -116.83 -0.000886495 0.00366753 18.6534 3e-006 -1e-006 81.4561 -2.78031 -4.45955 5.09144 13.9567 2.31759e-007 18.2655 3.64379 -12.4873 4.288 -1.42109e-014 3.55271e-015 2.00001 5.04921e-008 8.34644e-008 3.85799 1e-006 -3.55271e-014 -2.5 -1.73446e-005 -8.61195e-007 9.14738 -0.006229 0.0645772 -5.37755 21.545 10.2483 8.04405 -0.006286 0.000104 4.50477 2.50682 0.489575 8.04449 -0.006294 9.6e-005 7.97542 3.50981 0.987154 8.04236 -0.00814 8.8e-005 -8.18984 4.0069 -1.51743 10.6696 1.06804 0.000162984 -20.1618 0.00107999 0.00219723 -2.60607 -5.24653 -9.04791 -159.882 -74.4166 129.5 19.0492 3.81917e-014 1e-006 76.2081 9.85221 -73.6032 10.3706 0 7.10542e-015 -44.9599 -0.00174223 -0.00396481 22.8631 0 -1e-006 49.1942 -0.0992174 -20.6038 6.48256 0.103653 0.504497 58.9714 -10.429 11.5129 3.66843 6.75016e-014 1e-006 40.107 2.33186e-005 4.55222e-006 -2.60586 -5.24636 9.04798 -159.854 75.6548 -129.567 19.0492 -4.26326e-014 3e-006 64.9218 -5.80562 95.6877 10.3706 7.10543e-015 1.42108e-014 -128.238 0.00136538 -0.0038184 22.8631 3.55271e-015 -7.10542e-015 62.2599 -34.8632 5.33517 6.48257 0.103651 -0.504496 -25.4731 12.6322 9.05445 3.66843 -1e-006 -9.99999e-007 40.107 6.21245e-006 -4.67507e-007 7.52715 -0.006637 3.60001e-005 18.5003 0.145681 17.9247 8.47204 -0.005992 8.99998e-005 7.45887 0.014351 -15.6583 8.41605 1e-006 -2.84217e-014 -50.0883 11.4958 11.6405 -5e-006 3e-006 -3e-006 -23.1098 1.37701e-015 90 -8.11261e-009 -0.5 3.81906e-006 180 90 -90 0 0 0 -111.266 7.01671e-015 -180 6.08118 16.1655 3.88993 -22.989 1.37021e-015 90 0 0 0 -57.836 1.52588e-005 -180 0 0 0 -162.289 1.63921e-005 -4.96857e-006 0 0 0 170.24 -2.72681e-005 1.30278e-005 0 0 0 1.83152 1.22137e-008 -2.99588e-008 0 0 0 -17.65 -9.89727e-008 2.80363e-007 0 0 0 -26.1943 -5.76037e-008 4.32642e-007 15.5776 -0.000396 -7.00001e-006 3.18055e-015 4.77083e-015 -7.95139e-015 9.40574 1.0412 -6.51589 59.6853 -35.0732 116.865 2.76729 -0.00311 -0.004932 7.56908 -28.9574 29.5395 9.40607 1.04114 6.51588 59.6855 35.0737 -116.866 2.76729 -0.003108 0.004985 7.56873 28.9585 -29.5369 
4.20943 0 -48.869 -0 -90 -0 -1.12703 -28.7005 54.9191 92.2161 -6.19842 55.3157 0 0 0 -90.0009 0.0100337 -89.6745 -6.47743 -3.86247 -0.0162643 156.666 -0.055891 0.131197 8.89585 -0.008029 0.000125 -0.710928 0.000601819 0.00054011 10.2239 -0.007656 3e-006 -31.0111 7.10807e-005 0.000412932 9.85422 -0.006027 0.000142 -18.0202 0.000965395 0.00308535 8.04663 -0.005508 2.1e-005 -12.0921 0.00114049 0.00339737 1.1e-005 -1.1e-005 -8.75617 -92.6403 0.885121 -164.395 19.7638 1e-006 -5.32907e-015 -107.717 0.000158629 -0.0010009 18.6534 -1e-006 -1e-006 33.6863 15.0745 12.3686 5.09143 13.9567 -2.65115e-007 30.7157 -19.2776 -11.4554 4.28801 1e-006 -4.9738e-014 -2.32005 0.000937262 0.00235635 3.85803 -1.3e-005 1e-006 -45 -3.62859e-006 5.24456e-006 -1.1e-005 1.1e-005 8.75617 -99.4126 -13.8568 -150.092 19.7638 2e-006 0 -116.935 -0.000893231 0.0036659 18.6534 3e-006 -1e-006 77.5778 -0.788989 -3.9706 5.09144 13.9567 4.43366e-008 20.0453 3.23885 -12.5939 4.288 -7.10543e-015 -3.55271e-015 2.00001 6.04435e-008 1.06244e-007 3.85799 1e-006 -5.68434e-014 -2.5 -1.73557e-005 -8.90083e-007 9.14766 -0.006229 0.0206485 -5.42737 21.0613 10.3107 8.04405 -0.006286 0.000104 4.03303 2.44934 0.507136 8.04449 -0.006294 9.6e-005 6.8496 3.41625 1.03064 8.04236 -0.00814 8.8e-005 -8.1955 3.92111 -1.47652 10.6696 1.06804 0.000162985 -20.1613 0.00108003 0.00219724 -2.60613 -5.24647 -9.04791 -159.884 -74.4171 129.499 19.0492 3.59712e-014 1e-006 77.6296 6.05871 -74.2808 10.3706 1.42109e-014 7.10542e-015 -48.8475 -0.00157226 -0.0039839 22.8631 4.26326e-014 -1e-006 46.6275 0.945581 -19.984 6.48256 0.103653 0.504497 53.1455 -11.493 10.364 3.66843 3.90799e-014 1e-006 40.107 2.43702e-005 4.78225e-006 -2.60593 -5.24633 9.04798 -159.897 74.8141 -129.464 19.0492 -5.68434e-014 3e-006 64.7074 -2.66532 97.6266 10.3706 0 -7.10542e-015 -128.105 0.00135648 -0.00381925 22.8631 -1.42109e-014 7.10542e-015 58.905 -34.6422 4.86666 6.48257 0.103651 -0.504496 -26.2848 12.5047 9.23108 3.66843 -1e-006 -1e-006 40.107 1.74754e-005 -9.46759e-006 7.52715 -0.006637 3.60001e-005 17.7059 0.0295844 17.5945 8.47204 -0.005992 8.99998e-005 6.31154 0.0342716 -14.5249 8.41605 1e-006 -1.42109e-014 -50.0863 10.6063 11.3407 -5e-006 3e-006 -3e-006 -23.1098 1.37701e-015 90 -6.21386e-009 -0.5 3.81984e-006 180 90 -90 0 0 0 -112.03 -7.01671e-015 -180 5.5669 16.1889 3.88993 -22.989 1.37021e-015 90 0 0 0 -58.1096 1.52588e-005 -180 0 0 0 -162.289 1.63745e-005 -5.00713e-006 0 0 0 170.24 -2.72729e-005 1.30043e-005 0 0 0 1.83152 1.33849e-008 -2.57544e-008 0 0 0 -17.65 -1.03883e-007 2.40142e-007 0 0 0 -26.1943 -6.38245e-008 3.79009e-007 15.5776 -0.000396 -7.00001e-006 3.18055e-015 -1.59028e-015 -6.36111e-015 9.40574 1.0412 -6.51589 54.9712 -35.8626 111.962 2.76729 -0.00311 -0.004932 7.54743 -29.0434 27.59 9.40607 1.04114 6.51588 54.9715 35.863 -111.963 2.76729 -0.003108 0.004985 7.54743 29.0446 -27.5879 
4.20943 0 -48.869 -0 -90 -0 -1.11763 -28.7005 55.8567 94.3274 -6.51288 60.6163 0 0 0 -90 -3.50835e-015 -90 -6.47795 -3.86247 0.0001572 160.805 0.00151289 -0.00238172 8.89585 -0.008029 0.000125 6.34373 0.000663597 0.000462108 10.2239 -0.007656 3e-006 -39.7054 7.8439e-006 0.000418931 9.85422 -0.006027 0.000142 -31.4423 0.000222844 0.00322517 8.04663 -0.005508 2.1e-005 -27.8871 0.000172679 0.00357952 1.1e-005 -1.1e-005 -8.75617 -95.8246 -0.633613 -169.832 19.7638 1e-006 1.06581e-014 -115.252 0.000234536 -0.000999708 18.6534 -1e-006 -1e-006 49.1839 14.0368 8.38482 5.09143 13.9567 -2.15332e-007 9.74506 -12.0001 -14.5989 4.28801 1e-006 -3.55271e-014 -5.24251 0.000816053 0.00240099 3.85803 -1.3e-005 1e-006 -45 4.71671e-006 5.55628e-006 -1.1e-005 1.1e-005 8.75617 -107.259 -15.3923 -154.644 19.7638 2e-006 7.10543e-015 -115.617 -0.000857927 0.00366185 18.6534 3e-006 -1e-006 64.9957 -0.412771 -2.24133 5.09144 13.9567 6.15325e-008 29.0512 1.3763 -12.702 4.288 0 1.06581e-014 2.00001 4.83508e-008 8.34599e-008 3.85799 1e-006 -4.9738e-014 -2.5 -1.73419e-005 -8.61096e-007 9.1477 -0.006229 -0.0023252 -5.23801 18.9425 9.34962 8.04405 -0.006286 0.000104 1.72424 2.18615 0.53195 8.04449 -0.006294 9.6e-005 1.34102 2.98494 1.18174 8.04236 -0.00814 8.8e-005 -8.21748 3.52747 -1.3286 10.6696 1.06804 0.000162987 -20.1638 0.00107997 0.00219733 -2.60595 -5.24652 -9.04791 -159.882 -74.4171 129.499 19.0492 4.52971e-014 1e-006 78.2969 -2.18114 -78.2521 10.3706 -1.42109e-014 7.10542e-015 -55.3713 -0.00128904 -0.00401257 22.8631 1.42109e-014 -1e-006 41.909 2.78462 -19.1607 6.48256 0.103653 0.504497 42.5484 -13.1966 8.10476 3.66843 6.03961e-014 1e-006 40.107 2.18818e-005 5.83594e-006 -2.60573 -5.2464 9.04798 -159.876 74.4168 -129.511 19.0492 -4.61853e-014 3e-006 66.1256 6.10588 97.1048 10.3706 1.42109e-014 0 -127.605 0.00133222 -0.00382062 22.8631 7.10543e-015 -7.10542e-015 53.511 -34.1712 3.43518 6.48257 0.103651 -0.504496 -28.8505 12.0849 9.77752 3.66843 -1e-006 -1e-006 40.107 3.34529e-005 -2.36612e-005 7.52715 -0.006637 3.60001e-005 15.7991 -0.387027 16.5969 8.47204 -0.005992 8.99998e-005 3.69398 0.43045 -13.2648 8.41605 1e-006 -1.42109e-014 -46.7446 9.75274 13.4386 -5e-006 3e-006 -3e-006 -23.1098 1.37701e-015 90 -3.53796e-009 -0.5 3.82055e-006 180 90 -90 0 0 0 -112.793 7.01671e-015 -180 5.05263 16.2124 3.88993 -22.989 1.37021e-015 90 0 0 0 -71.7911 -1.52588e-005 -180 0 0 0 -162.289 1.58251e-005 -5.07109e-006 0 0 0 170.24 -2.76703e-005 1.28772e-005 0 0 0 1.83152 6.25387e-008 -1.48412e-008 0 0 0 -17.65 -3.27184e-007 1.21761e-007 0 0 0 -26.1943 -1.28021e-007 3.13346e-007 15.5776 -0.000396 -7e-006 6.36111e-015 -4.77083e-015 -9.54166e-015 9.40574 1.0412 -6.51589 34.6242 -34.3887 92.2723 2.76729 -0.00311 -0.004932 7.51942 -28.9732 19.1345 9.40607 1.04114 6.51588 34.6238 34.3888 -92.2722 2.76729 -0.003108 0.004985 7.52007 28.974 -19.1337 
4.20943 0 -48.869 -0 -90 -0 -0.930577 -28.7005 58.4092 96.1031 -5.69387 69.4578 0 0 0 -90 -3.50835e-015 -90 -6.47868 -3.86247 -3.28002e-005 167.309 0.000804401 -0.000632993 8.89585 -0.008029 0.000125 14.0216 0.000719387 0.000369307 10.2239 -0.007656 3e-006 -48.7206 -5.78979e-005 0.000414985 9.85422 -0.006027 0.000142 -42.6331 -0.000407326 0.00320709 8.04663 -0.005508 2.1e-005 -42.1802 -0.000716387 0.00351135 1.1e-005 -1.1e-005 -8.75617 -98.2967 -1.73998 -174.011 19.7638 1e-006 5.32907e-015 -116.171 0.000254124 -0.000999294 18.6534 -1e-006 -1e-006 53.0388 12.4393 6.45418 5.09143 13.9567 -1.88037e-007 8.05008 -10.5057 -13.983 4.28801 1e-006 -4.26326e-014 -4.78966 0.000835038 0.00239448 3.85803 -1.3e-005 1e-006 -45 9.43356e-006 5.51709e-006 -1.1e-005 1.1e-005 8.75617 -116.805 -16.1978 -161.695 19.7638 2e-006 -1.42109e-014 -109.465 -0.000640894 0.00366898 18.6534 3e-006 -1e-006 44.2446 -2.44067 0.0493859 5.09144 13.9567 2.69731e-007 57.0115 -5.37255 -11.7921 4.288 -7.10543e-015 1.06581e-014 6.49741 1.19444e-006 9.99353e-006 3.85799 1e-006 -7.10543e-015 -2.5 -1.73106e-005 -7.72696e-007 9.1477 -0.006229 -0.00162687 -4.9282 15.2336 7.44892 8.04405 -0.006286 0.000104 -1.20616 1.73206 0.522548 8.04449 -0.006294 9.6e-005 -5.64334 2.25564 1.2513 8.04236 -0.00814 8.8e-005 -8.25059 2.8363 -1.06623 10.6696 1.06804 0.000162991 -20.1605 0.00108014 0.00219734 -2.60634 -5.2465 -9.04791 -159.885 -74.4173 129.5 19.0492 7.4607e-014 1e-006 77.2687 -10.6362 -84.0856 10.3706 3.55271e-014 0 -61.0693 -0.00105129 -0.0040284 22.8631 1.42109e-014 -1e-006 36.1284 4.88242 -18.1424 6.48256 0.103653 0.504497 29.5076 -14.6679 4.95324 3.66843 2.13163e-014 1e-006 40.107 1.58745e-005 6.45467e-006 -2.6061 -5.24637 9.04798 -159.883 74.4197 -129.504 19.0492 -6.75016e-014 3e-006 70.2804 14.5098 95.6727 10.3706 3.55272e-014 7.10542e-015 -125.868 0.00123998 -0.00382592 22.8631 1.42109e-014 -2.13163e-014 46.8497 -33.342 1.269 6.48257 0.103651 -0.504496 -32.2556 11.4894 10.4733 3.66843 -9.99999e-007 -1e-006 40.107 4.56737e-005 -3.47202e-005 7.52715 -0.006637 3.6e-005 12.6894 -1.06484 15.0505 8.47204 -0.005992 8.99999e-005 -0.540148 1.17805 -12.0079 8.41605 1e-006 -1.77636e-015 -43.3701 8.4293 17.8043 -5e-006 3e-006 -3e-006 -23.1098 1.37701e-015 90 3.55357e-010 -0.5 3.82144e-006 180 90 -90 0 0 0 -113.537 -7.01671e-015 -180 4.53836 16.2358 3.88993 -22.989 1.37021e-015 90 0 0 0 -85.3358 -3.24611e-014 -180 0 0 0 -162.289 1.50076e-005 -5.32228e-006 0 0 0 170.24 -2.76048e-005 1.26053e-005 0 0 0 1.83152 2.15272e-007 3.77763e-008 0 0 0 -17.65 -1.6498e-006 -4.23462e-007 0 0 0 -26.1943 -3.55497e-007 1.40772e-007 15.5776 -0.000396 -7e-006 1.59028e-015 -3.97569e-015 4.77083e-015 9.40574 1.0412 -6.51589 7.13927 -19.6986 65.9428 2.76729 -0.00311 -0.004932 7.62361 -29.2337 5.17003 9.40607 1.04114 6.51588 7.13986 19.6999 -65.9426 2.76729 -0.003108 0.004985 7.624 29.2337 -5.1692 
